<svg xmlns="http://www.w3.org/2000/svg" viewBox="0 0 512 512"><defs><linearGradient id="p" x1="0" x2="0" y1="0" y2="1"><stop stop-color="#f8e7c7"/><stop offset="1" stop-color="#d8a76b"/></linearGradient><linearGradient id="w" x1="0" x2="0" y1="0" y2="1"><stop stop-color="#5a321c"/><stop offset="1" stop-color="#24140c"/></linearGradient></defs><rect width="512" height="512" rx="96" fill="url(#w)"/><rect x="42" y="42" width="428" height="428" rx="78" fill="url(#p)" stroke="#8e5a31" stroke-width="18"/><path d="M190 198h118a34 34 0 0 1 34 34v122a44 44 0 0 1-44 44h-98a44 44 0 0 1-44-44V232a34 34 0 0 1 34-34Z" fill="#b86a28" stroke="#3b2113" stroke-width="16"/><path d="M340 238h42a44 44 0 0 1 0 88h-42" fill="none" stroke="#3b2113" stroke-width="18" stroke-linecap="round"/><circle cx="188" cy="180" r="34" fill="#fff1d8" stroke="#8e5a31" stroke-width="8"/><circle cx="245" cy="160" r="44" fill="#fff1d8" stroke="#8e5a31" stroke-width="8"/><circle cx="309" cy="180" r="36" fill="#fff1d8" stroke="#8e5a31" stroke-width="8"/><text x="256" y="128" text-anchor="middle" font-family="Georgia,serif" font-size="86" font-weight="700" fill="#2b1b12">TR</text></svg>